<svg width="1436" height="749" viewBox="0 0 1436 749" fill="none" xmlns="http://www.w3.org/2000/svg">
<path d="M770.578 252.684C783.059 250.576 822.317 251.439 837.301 251.46L965.619 251.618L1436 251.584V493.823L1233.81 493.742C1221.75 493.739 1156.05 492.96 1146.95 494.567C1072.59 422.222 993.725 339.004 920.676 264.265C907.668 264.592 886.151 262.085 872.651 261.131C838.699 258.732 804.567 254.971 770.578 252.684Z" fill="#3F5DA8"/>
<path d="M686.317 251.184C701.975 252.132 731.221 257.222 748.693 259.219C803.446 265.481 854.004 270.566 909.036 272.689C966.276 333.203 1027.04 391.21 1084.43 451.656C1105.65 474.003 1128.34 494.93 1149.3 517.598C1122.4 517.339 1094.24 519.084 1066.75 518.996C1013.25 518.347 959.78 516.479 906.37 513.394C832.886 509.139 758.426 499.389 686.317 495.004V251.184Z" fill="#3F5DA8"/>
<path d="M941.088 0H1186.16V236.296H941.088V0Z" fill="#3F5DA8"/>
<path d="M922.147 529.828C995.487 535.291 1068.51 535.923 1141.9 531.802C1148.92 531.408 1155.66 530.335 1162.62 531.567C1164.92 545.857 1165.96 570.348 1167.14 585.656C1169.82 618.928 1173.15 652.145 1177.12 685.289C1179.04 702.193 1181.54 729.157 1185.3 745.113L1184.52 747.524C1178.27 750.061 966.779 748.555 943.048 748.566C935.454 698.366 926.402 650.188 924.726 599.057C923.973 576.126 923.394 552.676 922.147 529.828Z" fill="#3F5DA8"/>
<path d="M210.287 259.842H286.595L286.42 379.181C286.408 400.342 285.458 421.361 287.669 442.765C292.187 486.548 363.981 486.154 372.832 446.441C376.657 429.277 374.797 398.898 374.791 379.973L374.645 259.842H410.618V302.639C410.514 332.89 413.465 429.328 406.953 452.738C402.999 466.76 395.461 479.51 385.082 489.732C345.547 529.24 274.35 528.964 235.025 489.215C224.683 478.927 217.234 466.092 213.431 452.007C208.559 433.304 210.131 392.634 210.15 371.811L210.287 259.842Z" fill="#3F5DA8"/>
<path d="M503.318 258.367C531.056 257.06 569.058 258.225 597.574 258.238V290.96C578.508 291.12 523.231 286.348 514.442 298.848C486.554 347.345 575.417 338.325 597.945 368.264C642.61 427.624 609.868 512.377 528.271 510.896H437.178V473.68C462.256 473.815 487.435 474.155 512.426 474.125C532.087 473.898 548.79 462.977 547.171 441.546C546.717 424.352 529.856 416.253 514.796 412.75C471.514 402.679 433.194 388.089 430.135 336.27C429.045 316.477 435.908 297.068 449.195 282.359C464.086 265.654 481.646 259.53 503.318 258.367Z" fill="#3F5DA8"/>
<path d="M74.0848 258.486C104.428 257.598 136.606 258.169 167.109 258.238V290.96H95.6744C88.9191 295.037 76.7668 305.682 78.5165 314.194C85.8016 349.647 143.815 339.619 166.321 367.984C181.135 383.703 187.306 403.896 186.414 426.263C184.077 485.002 147.236 511.61 92.8006 510.896H6.73773V473.68C26.9486 473.469 47.6091 474.254 67.8373 474.306C95.7829 474.376 110.372 474.333 118.599 444.645C114.881 431.249 111.521 422.826 97.8926 417.653C70.6718 407.319 46.5511 407.882 23.9773 387.615C9.56122 374.459 0.968135 356.108 0.0909048 336.61C-0.891656 316.702 6.12305 297.227 19.5739 282.521C36.4614 264.145 50.2298 259.478 74.0848 258.486Z" fill="#3F5DA8"/>
<path d="M1161.74 506.386H1191.95L1191.82 692.21C1183.4 642.829 1179.19 573.701 1178.14 524.441L1161.74 506.386Z" fill="#3F5DA8"/>
</svg>
